ffmpeg started on 2025-06-03 at 19:44:05
Report written to "D:\Convert\FFMetrics\reports\ssim_report-6.txt"
Log level: 32
Command line:
ffmpeg -hide_banner -nostdin -i "G:\\\xc0\xed\xe8\xec\xe5\\\xce\xed\xe3\xee\xe8\xed\xe3\xe8\\!_36_\xce\xf1\xe5\xed\xfc_2024\\DreamCast\\\xc1\xe0\xf8\xed\xff \xc1\xee\xe3\xe0\\\xd2\xc2-2\\[DC] Kami no Tou - Ouji no Kikan - 11_Telegram_HEVC.mkv" -i "G:\\\xc0\xed\xe8\xec\xe5\\\xce\xed\xe3\xee\xe8\xed\xe3\xe8\\!_36_\xce\xf1\xe5\xed\xfc_2024\\DreamCast\\\xc1\xe0\xf8\xed\xff \xc1\xee\xe3\xe0\\\xd2\xc2-2\\[DC] Kami no Tou - Ouji no Kikan - 11_Telegram.mp4" -lavfi "[0:v]settb=AVTB,setpts=PTS-STARTPTS,format=pix_fmts=yuv420p10,fps=24000/1001,scale=1920:1080:flags=bicubic[main];[1:v]settb=AVTB,setpts=PTS-STARTPTS,format=pix_fmts=yuv420p,fps=24000/1001,scale=1920:1080:flags=bicubic[ref];[main][ref]ssim=eof_action=endall:stats_file='D\\:/Convert/FFMetrics/logs/ssim_logfile-6.txt'" -f null -
Input #0, matroska,webm, from 'G:\Аниме\Онгоинги\!_36_Осень_2024\DreamCast\Башня Бога\ТВ-2\[DC] Kami no Tou - Ouji no Kikan - 11_Telegram_HEVC.mkv':
  Metadata:
    COMPATIBLE_BRANDS: isomiso2avc1mp41
    MAJOR_BRAND     : isom
    MINOR_VERSION   : 512
    ENCODER         : Lavf61.7.100
  Duration: 00:23:47.93, start: -0.021000, bitrate: 1314 kb/s
  Stream #0:0: Video: hevc (Main 10), yuv420p10le(tv, bt709, progressive), 1920x1080 [SAR 1:1 DAR 16:9], 23.98 fps, 23.98 tbr, 1k tbn (default)
      Metadata:
        HANDLER_NAME    : VideoHandler
        VENDOR_ID       : [0][0][0][0]
        ENCODER         : Lavc61.19.100 libx265
        BPS             : 1116704
        DURATION        : 00:23:47.592708333
        NUMBER_OF_FRAMES: 34228
        NUMBER_OF_BYTES : 199274773
        _STATISTICS_WRITING_APP: mkvpropedit v66.0.0 ('Josie') 64-bit
        _STATISTICS_WRITING_DATE_UTC: 2025-05-29 17:40:19
        _STATISTICS_TAGS: BPS DURATION NUMBER_OF_FRAMES NUMBER_OF_BYTES
  Stream #0:1: Audio: aac (LC), 48000 Hz, stereo, fltp (default)
      Metadata:
        HANDLER_NAME    : SoundHandler
        VENDOR_ID       : [0][0][0][0]
        ENCODER         : Lavc61.19.100 aac
        BPS             : 194227
        DURATION        : 00:23:47.925000000
        NUMBER_OF_FRAMES: 66935
        NUMBER_OF_BYTES : 34667779
        _STATISTICS_WRITING_APP: mkvpropedit v66.0.0 ('Josie') 64-bit
        _STATISTICS_WRITING_DATE_UTC: 2025-05-29 17:40:19
        _STATISTICS_TAGS: BPS DURATION NUMBER_OF_FRAMES NUMBER_OF_BYTES
Input #1, mov,mp4,m4a,3gp,3g2,mj2, from 'G:\Аниме\Онгоинги\!_36_Осень_2024\DreamCast\Башня Бога\ТВ-2\[DC] Kami no Tou - Ouji no Kikan - 11_Telegram.mp4':
  Metadata:
    major_brand     : isom
    minor_version   : 512
    compatible_brands: isomiso2avc1mp41
    encoder         : Lavf61.1.100
  Duration: 00:23:47.89, start: 0.000000, bitrate: 3809 kb/s
  Stream #1:0[0x1](und): Video: h264 (High) (avc1 / 0x31637661), yuv420p(tv, bt709, progressive), 1920x1080 [SAR 1:1 DAR 16:9], 3661 kb/s, 23.98 fps, 23.98 tbr, 24k tbn (default)
      Metadata:
        handler_name    : VideoHandler
        vendor_id       : [0][0][0][0]
        encoder         : Lavc61.3.100 h264_qsv
  Stream #1:1[0x2](und): Audio: aac (HE-AACv2) (mp4a / 0x6134706D), 48000 Hz, stereo, fltp, 144 kb/s (default)
      Metadata:
        handler_name    : SoundHandler
        vendor_id       : [0][0][0][0]
Stream mapping:
  Stream #0:0 (hevc) -> settb:default
  Stream #1:0 (h264) -> settb:default
  ssim:default -> Stream #0:0 (wrapped_avframe)
  Stream #0:1 -> #0:1 (aac (native) -> pcm_s16le (native))
Output #0, null, to 'pipe:':
  Metadata:
    COMPATIBLE_BRANDS: isomiso2avc1mp41
    MAJOR_BRAND     : isom
    MINOR_VERSION   : 512
    encoder         : Lavf61.7.100
  Stream #0:0: Video: wrapped_avframe, yuv420p10le(tv, bt709, progressive), 1920x1080 [SAR 1:1 DAR 16:9], q=2-31, 200 kb/s, 23.98 fps, 23.98 tbn
      Metadata:
        encoder         : Lavc61.19.100 wrapped_avframe
  Stream #0:1: Audio: pcm_s16le, 48000 Hz, stereo, s16, 1536 kb/s (default)
      Metadata:
        HANDLER_NAME    : SoundHandler
        VENDOR_ID       : [0][0][0][0]
        _STATISTICS_TAGS: BPS DURATION NUMBER_OF_FRAMES NUMBER_OF_BYTES
        BPS             : 194227
        DURATION        : 00:23:47.925000000
        NUMBER_OF_FRAMES: 66935
        NUMBER_OF_BYTES : 34667779
        _STATISTICS_WRITING_APP: mkvpropedit v66.0.0 ('Josie') 64-bit
        _STATISTICS_WRITING_DATE_UTC: 2025-05-29 17:40:19
        encoder         : Lavc61.19.100 pcm_s16le
frame=  181 fps=0.0 q=-0.0 size=N/A time=00:00:07.54 bitrate=N/A speed=14.8x    frame=  451 fps=436 q=-0.0 size=N/A time=00:00:18.81 bitrate=N/A speed=18.2x    frame=  728 fps=472 q=-0.0 size=N/A time=00:00:30.36 bitrate=N/A speed=19.7x    frame= 1026 fps=497 q=-0.0 size=N/A time=00:00:42.79 bitrate=N/A speed=20.7x    frame= 1258 fps=489 q=-0.0 size=N/A time=00:00:52.46 bitrate=N/A speed=20.4x    frame= 1485 fps=480 q=-0.0 size=N/A time=00:01:01.93 bitrate=N/A speed=  20x    frame= 1701 fps=472 q=-0.0 size=N/A time=00:01:10.94 bitrate=N/A speed=19.7x    frame= 1837 fps=445 q=-0.0 size=N/A time=00:01:16.61 bitrate=N/A speed=18.6x    frame= 1998 fps=431 q=-0.0 size=N/A time=00:01:23.33 bitrate=N/A speed=  18x    frame= 2129 fps=414 q=-0.0 size=N/A time=00:01:28.79 bitrate=N/A speed=17.3x    frame= 2294 fps=404 q=-0.0 size=N/A time=00:01:35.67 bitrate=N/A speed=16.9x    frame= 2418 fps=391 q=-0.0 size=N/A time=00:01:40.85 bitrate=N/A speed=16.3x    frame= 2569 fps=383 q=-0.0 size=N/A time=00:01:47.14 bitrate=N/A speed=  16x    frame= 2725 fps=378 q=-0.0 size=N/A time=00:01:53.65 bitrate=N/A speed=15.8x    frame= 2912 fps=376 q=-0.0 size=N/A time=00:02:01.45 bitrate=N/A speed=15.7x    frame= 3067 fps=371 q=-0.0 size=N/A time=00:02:07.91 bitrate=N/A speed=15.5x    frame= 3192 fps=363 q=-0.0 size=N/A time=00:02:13.13 bitrate=N/A speed=15.2x    frame= 3307 fps=356 q=-0.0 size=N/A time=00:02:17.92 bitrate=N/A speed=14.8x    frame= 3414 fps=348 q=-0.0 size=N/A time=00:02:22.39 bitrate=N/A speed=14.5x    frame= 3539 fps=343 q=-0.0 size=N/A time=00:02:27.60 bitrate=N/A speed=14.3x    frame= 3688 fps=340 q=-0.0 size=N/A time=00:02:33.82 bitrate=N/A speed=14.2x    frame= 3889 fps=342 q=-0.0 size=N/A time=00:02:42.20 bitrate=N/A speed=14.3x    frame= 4178 fps=352 q=-0.0 size=N/A time=00:02:54.25 bitrate=N/A speed=14.7x    frame= 4410 fps=356 q=-0.0 size=N/A time=00:03:03.93 bitrate=N/A speed=14.9x    frame= 4645 fps=360 q=-0.0 size=N/A time=00:03:13.73 bitrate=N/A speed=  15x    frame= 4874 fps=363 q=-0.0 size=N/A time=00:03:23.28 bitrate=N/A speed=15.1x    frame= 5071 fps=364 q=-0.0 size=N/A time=00:03:31.50 bitrate=N/A speed=15.2x    frame= 5262 fps=364 q=-0.0 size=N/A time=00:03:39.46 bitrate=N/A speed=15.2x    frame= 5484 fps=366 q=-0.0 size=N/A time=00:03:48.72 bitrate=N/A speed=15.3x    frame= 5754 fps=372 q=-0.0 size=N/A time=00:03:59.98 bitrate=N/A speed=15.5x    frame= 6000 fps=375 q=-0.0 size=N/A time=00:04:10.25 bitrate=N/A speed=15.6x    frame= 6249 fps=378 q=-0.0 size=N/A time=00:04:20.63 bitrate=N/A speed=15.8x    frame= 6514 fps=383 q=-0.0 size=N/A time=00:04:31.68 bitrate=N/A speed=  16x    frame= 6752 fps=385 q=-0.0 size=N/A time=00:04:41.61 bitrate=N/A speed=  16x    frame= 7026 fps=389 q=-0.0 size=N/A time=00:04:53.04 bitrate=N/A speed=16.2x    frame= 7286 fps=392 q=-0.0 size=N/A time=00:05:03.88 bitrate=N/A speed=16.4x    frame= 7515 fps=394 q=-0.0 size=N/A time=00:05:13.43 bitrate=N/A speed=16.4x    frame= 7727 fps=394 q=-0.0 size=N/A time=00:05:22.28 bitrate=N/A speed=16.4x    frame= 7939 fps=395 q=-0.0 size=N/A time=00:05:31.12 bitrate=N/A speed=16.5x    frame= 8211 fps=398 q=-0.0 size=N/A time=00:05:42.46 bitrate=N/A speed=16.6x    frame= 8486 fps=401 q=-0.0 size=N/A time=00:05:53.93 bitrate=N/A speed=16.7x    frame= 8777 fps=405 q=-0.0 size=N/A time=00:06:06.07 bitrate=N/A speed=16.9x    frame= 9063 fps=409 q=-0.0 size=N/A time=00:06:18.00 bitrate=N/A speed=  17x    frame= 9356 fps=412 q=-0.0 size=N/A time=00:06:30.22 bitrate=N/A speed=17.2x    frame= 9607 fps=414 q=-0.0 size=N/A time=00:06:40.69 bitrate=N/A speed=17.3x    frame= 9854 fps=415 q=-0.0 size=N/A time=00:06:50.99 bitrate=N/A speed=17.3x    frame=10113 fps=417 q=-0.0 size=N/A time=00:07:01.79 bitrate=N/A speed=17.4x    frame=10410 fps=420 q=-0.0 size=N/A time=00:07:14.18 bitrate=N/A speed=17.5x    frame=10672 fps=422 q=-0.0 size=N/A time=00:07:25.11 bitrate=N/A speed=17.6x    frame=10935 fps=424 q=-0.0 size=N/A time=00:07:36.08 bitrate=N/A speed=17.7x    frame=11157 fps=424 q=-0.0 size=N/A time=00:07:45.33 bitrate=N/A speed=17.7x    frame=11457 fps=427 q=-0.0 size=N/A time=00:07:57.85 bitrate=N/A speed=17.8x    frame=11737 fps=429 q=-0.0 size=N/A time=00:08:09.53 bitrate=N/A speed=17.9x    frame=12018 fps=431 q=-0.0 size=N/A time=00:08:21.25 bitrate=N/A speed=  18x    frame=12279 fps=433 q=-0.0 size=N/A time=00:08:32.13 bitrate=N/A speed=18.1x    frame=12546 fps=434 q=-0.0 size=N/A time=00:08:43.27 bitrate=N/A speed=18.1x    frame=12792 fps=435 q=-0.0 size=N/A time=00:08:53.53 bitrate=N/A speed=18.1x    frame=13056 fps=436 q=-0.0 size=N/A time=00:09:04.54 bitrate=N/A speed=18.2x    frame=13314 fps=437 q=-0.0 size=N/A time=00:09:15.30 bitrate=N/A speed=18.2x    frame=13577 fps=439 q=-0.0 size=N/A time=00:09:26.27 bitrate=N/A speed=18.3x    frame=13862 fps=440 q=-0.0 size=N/A time=00:09:38.16 bitrate=N/A speed=18.4x    frame=14136 fps=442 q=-0.0 size=N/A time=00:09:49.58 bitrate=N/A speed=18.4x    frame=14413 fps=444 q=-0.0 size=N/A time=00:10:01.14 bitrate=N/A speed=18.5x    frame=14705 fps=445 q=-0.0 size=N/A time=00:10:13.32 bitrate=N/A speed=18.6x    frame=14977 fps=447 q=-0.0 size=N/A time=00:10:24.66 bitrate=N/A speed=18.6x    frame=15249 fps=448 q=-0.0 size=N/A time=00:10:36.01 bitrate=N/A speed=18.7x    frame=15513 fps=449 q=-0.0 size=N/A time=00:10:47.02 bitrate=N/A speed=18.7x    frame=15791 fps=450 q=-0.0 size=N/A time=00:10:58.61 bitrate=N/A speed=18.8x    frame=16077 fps=452 q=-0.0 size=N/A time=00:11:10.54 bitrate=N/A speed=18.8x    frame=16359 fps=453 q=-0.0 size=N/A time=00:11:22.30 bitrate=N/A speed=18.9x    frame=16628 fps=454 q=-0.0 size=N/A time=00:11:33.52 bitrate=N/A speed=18.9x    frame=16924 fps=456 q=-0.0 size=N/A time=00:11:45.87 bitrate=N/A speed=  19x    frame=17194 fps=457 q=-0.0 size=N/A time=00:11:57.13 bitrate=N/A speed=  19x    frame=17480 fps=458 q=-0.0 size=N/A time=00:12:09.06 bitrate=N/A speed=19.1x    frame=17771 fps=459 q=-0.0 size=N/A time=00:12:21.19 bitrate=N/A speed=19.2x    frame=18063 fps=461 q=-0.0 size=N/A time=00:12:33.37 bitrate=N/A speed=19.2x    frame=18347 fps=462 q=-0.0 size=N/A time=00:12:45.22 bitrate=N/A speed=19.3x    frame=18633 fps=463 q=-0.0 size=N/A time=00:12:57.15 bitrate=N/A speed=19.3x    frame=18918 fps=464 q=-0.0 size=N/A time=00:13:09.03 bitrate=N/A speed=19.4x    frame=19198 fps=465 q=-0.0 size=N/A time=00:13:20.71 bitrate=N/A speed=19.4x    frame=19480 fps=466 q=-0.0 size=N/A time=00:13:32.47 bitrate=N/A speed=19.4x    frame=19746 fps=467 q=-0.0 size=N/A time=00:13:43.57 bitrate=N/A speed=19.5x    frame=20035 fps=468 q=-0.0 size=N/A time=00:13:55.62 bitrate=N/A speed=19.5x    frame=20317 fps=469 q=-0.0 size=N/A time=00:14:07.38 bitrate=N/A speed=19.6x    frame=20616 fps=470 q=-0.0 size=N/A time=00:14:19.85 bitrate=N/A speed=19.6x    frame=20887 fps=471 q=-0.0 size=N/A time=00:14:31.16 bitrate=N/A speed=19.6x    frame=21159 fps=472 q=-0.0 size=N/A time=00:14:42.50 bitrate=N/A speed=19.7x    frame=21454 fps=473 q=-0.0 size=N/A time=00:14:54.81 bitrate=N/A speed=19.7x    frame=21733 fps=473 q=-0.0 size=N/A time=00:15:06.44 bitrate=N/A speed=19.7x    frame=22017 fps=474 q=-0.0 size=N/A time=00:15:18.29 bitrate=N/A speed=19.8x    frame=22273 fps=475 q=-0.0 size=N/A time=00:15:28.96 bitrate=N/A speed=19.8x    frame=22561 fps=476 q=-0.0 size=N/A time=00:15:40.98 bitrate=N/A speed=19.8x    frame=22850 fps=476 q=-0.0 size=N/A time=00:15:53.03 bitrate=N/A speed=19.9x    frame=23136 fps=477 q=-0.0 size=N/A time=00:16:04.96 bitrate=N/A speed=19.9x    frame=23415 fps=478 q=-0.0 size=N/A time=00:16:16.60 bitrate=N/A speed=19.9x    frame=23678 fps=478 q=-0.0 size=N/A time=00:16:27.56 bitrate=N/A speed=19.9x    frame=23925 fps=478 q=-0.0 size=N/A time=00:16:37.87 bitrate=N/A speed=19.9x    frame=24166 fps=478 q=-0.0 size=N/A time=00:16:47.92 bitrate=N/A speed=19.9x    frame=24411 fps=478 q=-0.0 size=N/A time=00:16:58.14 bitrate=N/A speed=19.9x    frame=24667 fps=478 q=-0.0 size=N/A time=00:17:08.81 bitrate=N/A speed=19.9x    frame=24910 fps=478 q=-0.0 size=N/A time=00:17:18.95 bitrate=N/A speed=19.9x    frame=25160 fps=478 q=-0.0 size=N/A time=00:17:29.38 bitrate=N/A speed=19.9x    frame=25411 fps=478 q=-0.0 size=N/A time=00:17:39.85 bitrate=N/A speed=19.9x    frame=25675 fps=479 q=-0.0 size=N/A time=00:17:50.86 bitrate=N/A speed=  20x    frame=25978 fps=480 q=-0.0 size=N/A time=00:18:03.49 bitrate=N/A speed=  20x    frame=26266 fps=480 q=-0.0 size=N/A time=00:18:15.51 bitrate=N/A speed=  20x    frame=26563 fps=481 q=-0.0 size=N/A time=00:18:27.89 bitrate=N/A speed=20.1x    frame=26836 fps=482 q=-0.0 size=N/A time=00:18:39.28 bitrate=N/A speed=20.1x    frame=27133 fps=483 q=-0.0 size=N/A time=00:18:51.67 bitrate=N/A speed=20.1x    frame=27406 fps=483 q=-0.0 size=N/A time=00:19:03.05 bitrate=N/A speed=20.1x    frame=27709 fps=484 q=-0.0 size=N/A time=00:19:15.69 bitrate=N/A speed=20.2x    frame=28004 fps=485 q=-0.0 size=N/A time=00:19:28.00 bitrate=N/A speed=20.2x    frame=28307 fps=486 q=-0.0 size=N/A time=00:19:40.63 bitrate=N/A speed=20.3x    frame=28594 fps=486 q=-0.0 size=N/A time=00:19:52.60 bitrate=N/A speed=20.3x    frame=28890 fps=487 q=-0.0 size=N/A time=00:20:04.95 bitrate=N/A speed=20.3x    frame=29175 fps=488 q=-0.0 size=N/A time=00:20:16.84 bitrate=N/A speed=20.3x    frame=29481 fps=489 q=-0.0 size=N/A time=00:20:29.60 bitrate=N/A speed=20.4x    frame=29765 fps=489 q=-0.0 size=N/A time=00:20:41.44 bitrate=N/A speed=20.4x    frame=30065 fps=490 q=-0.0 size=N/A time=00:20:53.96 bitrate=N/A speed=20.4x    frame=30352 fps=490 q=-0.0 size=N/A time=00:21:05.93 bitrate=N/A speed=20.5x    frame=30632 fps=491 q=-0.0 size=N/A time=00:21:17.60 bitrate=N/A speed=20.5x    frame=30905 fps=491 q=-0.0 size=N/A time=00:21:28.99 bitrate=N/A speed=20.5x    frame=31191 fps=492 q=-0.0 size=N/A time=00:21:40.92 bitrate=N/A speed=20.5x    frame=31479 fps=492 q=-0.0 size=N/A time=00:21:52.93 bitrate=N/A speed=20.5x    frame=31753 fps=493 q=-0.0 size=N/A time=00:22:04.36 bitrate=N/A speed=20.5x    frame=32033 fps=493 q=-0.0 size=N/A time=00:22:16.04 bitrate=N/A speed=20.6x    frame=32280 fps=493 q=-0.0 size=N/A time=00:22:26.34 bitrate=N/A speed=20.6x    frame=32494 fps=492 q=-0.0 size=N/A time=00:22:35.27 bitrate=N/A speed=20.5x    frame=32681 fps=491 q=-0.0 size=N/A time=00:22:43.07 bitrate=N/A speed=20.5x    frame=32865 fps=490 q=-0.0 size=N/A time=00:22:50.74 bitrate=N/A speed=20.4x    frame=33064 fps=489 q=-0.0 size=N/A time=00:22:59.04 bitrate=N/A speed=20.4x    frame=33260 fps=489 q=-0.0 size=N/A time=00:23:07.21 bitrate=N/A speed=20.4x    frame=33449 fps=488 q=-0.0 size=N/A time=00:23:15.10 bitrate=N/A speed=20.3x    frame=33649 fps=487 q=-0.0 size=N/A time=00:23:23.44 bitrate=N/A speed=20.3x    frame=33882 fps=487 q=-0.0 size=N/A time=00:23:33.16 bitrate=N/A speed=20.3x    frame=34127 fps=486 q=-0.0 size=N/A time=00:23:43.38 bitrate=N/A speed=20.3x    [Parsed_ssim_10 @ 0000023ee2edf800] SSIM Y:0.994666 (22.729770) U:0.996573 (24.650241) V:0.995895 (23.867134) All:0.995189 (23.177532)
[out#0/null @ 0000023ed66d5880] video:14707KiB audio:267740KiB subtitle:0KiB other streams:0KiB global headers:0KiB muxing overhead: unknown
frame=34228 fps=486 q=-0.0 Lsize=N/A time=00:23:47.59 bitrate=N/A speed=20.3x    
